<svg xmlns="http://www.w3.org/2000/svg" width="256" height="256" viewBox="0 0 256 256">
  <defs>
    <linearGradient id="g" x1="0" y1="0" x2="1" y2="1">
      <stop offset="0" stop-color="#fbbf24"/>
      <stop offset="0.55" stop-color="#f59e0b"/>
      <stop offset="1" stop-color="#d97706"/>
    </linearGradient>
    <linearGradient id="bg" x1="0" y1="0" x2="1" y2="1">
      <stop offset="0" stop-color="#0b1020"/>
      <stop offset="1" stop-color="#070a12"/>
    </linearGradient>
    <filter id="s" x="-30%" y="-30%" width="160%" height="160%">
      <feDropShadow dx="0" dy="10" stdDeviation="10" flood-color="#000" flood-opacity="0.55"/>
    </filter>
  </defs>

  <rect x="14" y="14" width="228" height="228" rx="44" fill="url(#bg)" stroke="rgba(255,255,255,0.12)" stroke-width="4"/>

  <g filter="url(#s)">
    <path d="M62 184V72h48c28 0 48 18 48 44 0 25-18 43-43 43h-6l47 25v20h-27l-54-32v32H62zm33-64h16c16 0 24-8 24-20 0-13-9-21-24-21H95v41z"
          fill="url(#g)" stroke="#0b0f14" stroke-width="6" paint-order="stroke"/>
  </g>
</svg>

